<?xml version="1.0" encoding="utf-8"?>
<!-- Generator: Adobe Illustrator 16.0.0, SVG Export Plug-In . SVG Version: 6.00 Build 0)  -->
<!DOCTYPE svg PUBLIC "-//W3C//DTD SVG 1.1//EN" "http://www.w3.org/Graphics/SVG/1.1/DTD/svg11.dtd">
<svg version="1.1" id="Capa_1" xmlns="http://www.w3.org/2000/svg" xmlns:xlink="http://www.w3.org/1999/xlink" x="0px" y="0px"
	 width="841.89px" height="370px" viewBox="0 0 841.89 370" enable-background="new 0 0 841.89 370" xml:space="preserve">
<g>
	<path fill-rule="evenodd" clip-rule="evenodd" fill="#344E80" d="M142.095,206.885l37.092-1.293
		c-0.314,6.223,0.46,10.992,2.318,14.307c3.031,5.374,8.225,8.168,15.6,8.39c5.501,0.166,9.982-1.047,13.435-3.648
		c3.461-2.598,5.501-5.663,6.135-9.204c0.603-3.361-0.281-6.415-2.635-9.153c-2.363-2.739-8.495-5.444-18.393-8.118
		c-16.19-4.459-27.305-10.071-33.332-16.836c-6.093-6.763-8.226-15.223-6.415-25.375c1.197-6.667,4.174-12.91,8.955-18.73
		c4.773-5.82,11.191-10.313,19.26-13.485c8.057-3.169,18.584-4.558,31.567-4.175c15.938,0.48,27.532,3.928,34.798,10.34
		c7.259,6.422,10.485,16.378,9.664,29.879l-36.716,1.128c0.081-5.871-1.193-10.183-3.802-12.929
		c-2.616-2.751-6.645-4.206-12.092-4.366c-4.482-0.134-8.026,0.756-10.651,2.666c-2.617,1.907-4.189,4.278-4.692,7.11
		c-0.369,2.068,0.234,3.952,1.814,5.659c1.504,1.769,5.532,3.491,12.07,5.168c16.176,4.277,27.547,8.459,34.146,12.545
		c6.599,4.082,11.041,9.039,13.336,14.859c2.291,5.823,2.808,12.272,1.542,19.354c-1.485,8.321-5.072,15.926-10.75,22.815
		c-5.678,6.892-12.811,12.032-21.393,15.423c-8.594,3.392-18.922,4.908-31,4.548c-21.208-0.634-35.135-5.326-41.784-14.065
		C143.526,230.955,140.829,220.021,142.095,206.885z"/>
	<path fill-rule="evenodd" clip-rule="evenodd" fill="#344E80" d="M340.29,188.323h-53.402c-0.321,4.474,0.247,7.8,1.685,9.99
		c2.018,3.148,5.102,4.728,9.238,4.728c2.621,0,5.229-0.685,7.831-2.054c1.592-0.867,3.415-2.395,5.463-4.585l25.794,2.533
		c-5.318,7.305-11.088,12.541-17.322,15.71c-6.243,3.173-14.659,4.758-25.26,4.758c-9.208,0-16.21-1.354-21.005-4.074
		c-4.8-2.714-8.407-7.025-10.819-12.942c-2.417-5.903-2.916-12.859-1.496-20.843c2.018-11.365,7.132-20.564,15.346-27.597
		c8.203-7.032,18.442-10.543,30.704-10.543c9.944,0,17.518,1.573,22.721,4.723c5.198,3.15,8.77,7.715,10.715,13.692
		c1.953,5.981,2.072,13.762,0.369,23.353L340.29,188.323L340.29,188.323z M315.57,174.968L315.57,174.968
		c0.434-5.387-0.265-9.247-2.098-11.576c-1.838-2.325-4.584-3.487-8.257-3.487c-4.228,0-7.918,1.753-11.076,5.271
		c-2.003,2.191-3.61,5.46-4.815,9.792H315.57z"/>
	<path fill-rule="evenodd" clip-rule="evenodd" fill="#344E80" d="M357.543,145.046h24.803l-2.11,11.847
		c4.569-4.841,8.935-8.298,13.105-10.374c4.16-2.076,8.971-3.115,14.426-3.115c7.373,0,12.74,2.29,16.082,6.883
		c3.356,4.585,4.174,11.671,2.479,21.259l-8.223,46.215h-26.763l7.105-39.988c0.813-4.558,0.579-7.792-0.699-9.683
		c-1.273-1.896-3.375-2.843-6.303-2.843c-3.226,0-6.073,1.282-8.532,3.829c-2.463,2.559-4.281,7.147-5.456,13.765l-6.211,34.921
		h-26.637L357.543,145.046z"/>
	<path fill-rule="evenodd" clip-rule="evenodd" fill="#344E80" d="M465.7,168.603l-24.966-2.808
		c1.793-4.658,3.821-8.317,6.111-10.992c2.283-2.67,5.299-4.988,9.055-6.948c2.693-1.416,6.25-2.513,10.666-3.288
		c4.412-0.774,9.104-1.163,14.08-1.163c7.98,0,14.314,0.472,18.991,1.4c4.682,0.94,8.367,2.889,11.064,5.859
		c1.907,2.053,3.177,4.96,3.817,8.729c0.641,3.767,0.656,7.362,0.042,10.787l-5.709,32.109c-0.604,3.426-0.873,6.104-0.806,8.048
		c0.069,1.935,0.537,4.409,1.397,7.425h-24.999c-0.671-1.872-1.074-3.295-1.205-4.277c-0.13-0.981-0.165-2.525-0.101-4.619
		c-4.116,3.51-8.021,6.022-11.735,7.523c-5.072,2.014-10.727,3.016-16.965,3.016c-8.292,0-14.23-2.007-17.813-6.02
		c-3.585-4.021-4.857-8.974-3.803-14.859c0.979-5.524,3.339-10.067,7.067-13.632c3.732-3.555,9.914-6.207,18.558-7.941
		c10.365-2.095,17.11-3.568,20.23-4.413c3.115-0.844,6.448-1.952,10.009-3.318c0.606-3.426,0.357-5.829-0.748-7.194
		c-1.109-1.37-3.367-2.053-6.767-2.053c-4.366,0-7.77,0.729-10.209,2.187C469.057,163.305,467.307,165.449,465.7,168.603
		L465.7,168.603z M486.191,183.251L486.191,183.251c-3.902,1.369-7.939,2.582-12.098,3.629c-5.679,1.509-9.365,2.99-11.064,4.45
		c-1.75,1.512-2.802,3.22-3.143,5.137c-0.391,2.192,0.027,3.98,1.243,5.376c1.212,1.393,3.234,2.088,6.07,2.088
		c2.966,0,5.865-0.753,8.682-2.26c2.819-1.504,4.956-3.347,6.415-5.513c1.457-2.165,2.489-4.985,3.106-8.453L486.191,183.251z"/>
	<path fill-rule="evenodd" clip-rule="evenodd" fill="#344E80" d="M535.203,145.046h24.864l-1.887,10.612
		c4.373-4.427,8.543-7.574,12.529-9.45c3.979-1.872,8.548-2.805,13.701-2.805c5.551,0,9.761,1.028,12.63,3.081
		c2.869,2.053,4.973,5.111,6.296,9.174c5.034-4.747,9.418-7.973,13.167-9.684c3.745-1.719,8.146-2.571,13.198-2.571
		c7.454,0,12.853,2.313,16.214,6.944c3.356,4.639,4.158,11.882,2.412,21.742l-8.118,45.67h-26.702l7.362-41.424
		c0.583-3.287,0.406-5.731-0.524-7.324c-1.335-2.509-3.327-3.767-5.987-3.767c-3.126,0-5.86,1.186-8.193,3.561
		c-2.337,2.375-3.972,6.184-4.903,11.437l-6.673,37.518h-26.702l7.125-40.057c0.563-3.192,0.775-5.36,0.625-6.5
		c-0.241-1.83-0.964-3.299-2.168-4.419c-1.2-1.116-2.742-1.676-4.627-1.676c-3.065,0-5.793,1.211-8.198,3.629
		c-2.401,2.42-4.09,6.388-5.068,11.916l-6.603,37.107h-26.699L535.203,145.046z"/>
	<path fill-rule="evenodd" clip-rule="evenodd" fill="#344E80" d="M671.275,117.384h26.637l-6.571,36.974
		c4.316-3.929,8.413-6.733,12.288-8.418c3.884-1.688,8.265-2.536,13.152-2.536c7.248,0,12.537,2.306,15.884,6.913
		c3.345,4.612,4.177,11.69,2.474,21.229l-8.21,46.215h-26.771l7.109-39.988c0.813-4.558,0.579-7.792-0.699-9.683
		c-1.277-1.896-3.372-2.843-6.298-2.843c-3.232,0-6.074,1.282-8.538,3.829c-2.459,2.559-4.277,7.147-5.459,13.765l-6.208,34.921
		h-26.632L671.275,117.384z"/>
	<path fill-rule="evenodd" clip-rule="evenodd" fill="#344E80" d="M755.403,145.046h26.639l-12.938,72.714h-26.633L755.403,145.046
		L755.403,145.046z M760.319,117.384L760.319,117.384h26.634l-3.377,18.965h-26.629L760.319,117.384z"/>
</g>
<path fill-rule="evenodd" clip-rule="evenodd" fill="#EFC030" d="M308.319,269.091c-1.546-22.805-27.205-34.733-39.395-37.3
	c-14.272,21.045-38.373,34.875-65.716,34.875c-43.829-0.003-79.356-35.526-79.356-79.359c0-43.829,35.527-79.356,79.356-79.356
	c24.102,0,45.647,10.785,60.204,27.746c18.431-24.301,35.581-14.67,45.682-38.569c9.051-21.409-8.578-51.299-8.578-51.299
	s-4.769,19.9-30.946,22.697c-17.575,1.88-26.426,15.546-30.589,25.641c-1.55-0.921-3.127-1.812-4.73-2.648
	c-3.941-11.299,9.652-14.41,6.553-40.357c-2.67-22.398-33.267-38.469-33.267-38.469s6.503,19.144-12.043,36.156
	c-10.436,9.568-12.615,23.848-11.521,34.518c-2.697,0.188-4.216,0.479-6.848,0.901c-11.48-6.994-2.149-19.271-18.132-36.54
	c-15.339-16.562-50.386-10.911-50.386-10.911s16.724,11.517,11.353,36.478c-2.865,13.306,3.794,24.911,10.647,32.854
	c-2.095,1.806-4.121,3.698-6.065,5.682c-6.507-4.041-8.395-12.883-27.85-18.624c-22.015-6.487-49.185,17.119-49.185,17.119
	s20.579,1.09,29.412,25.311c3.916,10.726,12.684,17.805,21.427,21.461c-1.17,3.925-1.723,6.269-2.459,10.382
	c-6.836-0.821-14.218-4.516-31.613,1.194c-22.015,7.224-31.034,43.294-31.034,43.294s17.725-11.032,38.983,4.62
	c8.429,6.203,18.147,6.994,26.81,5.694c0.914,2.906,1.938,5.758,3.077,8.55c-0.199,0.231-0.403,0.45-0.591,0.685
	c-6.039,7.308-15.358,3.21-29.215,21.01c-13.858,17.797-2.287,50.811-2.287,50.811s8.438-18.377,33.605-17.978
	c11.917,0.191,21.278-6.631,27.846-13.866c2.981,2.517,6.085,4.868,9.331,6.998c-0.016,0.146-0.054,0.287-0.073,0.434
	c-1.431,9.376-11.828,10.527-14.567,32.933c-2.751,22.398,25.011,45.158,25.011,45.158s-2.341-20.17,20.053-32.516
	c12.385-6.834,16.617-20.185,17.933-30.769c0.787,0.018,1.569,0.06,2.363,0.06c1.789,0,3.564-0.058,5.326-0.156
	c7.761,9.583-2.694,17.962,7.692,38.002c10.386,20.038,46.147,23.146,46.147,23.146s-13.32-15.327-1.811-38.166
	c7.297-14.483,0.898-29.999-4.757-39.422c1.419-0.978,2.808-1.991,4.174-3.046c16.728,5.654,11.801,21.535,31.13,33.221
	c19.343,11.682,52.342-5.117,52.342-5.117S310.083,295.11,308.319,269.091z"/>
<path fill-rule="evenodd" clip-rule="evenodd" fill="#344E80" d="M348.573,259.738c0.807,0.603,2.497,1.205,4.867,1.205
	c3.783,0,6.91-1.933,6.91-5.698c0-2.009-1.312-3.389-3.38-4.469c-1.437-0.803-2.471-1.405-2.471-2.385
	c0-0.929,0.882-1.782,2.572-1.782c1.412-0.025,2.623,0.452,3.177,0.753l1.135-3.013c-0.731-0.401-1.942-0.854-4.01-0.854
	c-3.707,0-6.708,2.084-6.708,5.498c0,2.209,1.715,3.515,3.531,4.493c1.563,0.804,2.295,1.432,2.295,2.385
	c0,1.331-1.287,1.983-2.699,1.983c-1.563,0-3.001-0.477-4.01-1.079L348.573,259.738z"/>
<polygon fill-rule="evenodd" clip-rule="evenodd" fill="#344E80" points="373.54,250.476 367.487,250.476 368.193,246.86 
	374.599,246.86 375.205,243.772 365.142,243.772 361.914,260.692 372.329,260.692 372.91,257.604 366.125,257.604 366.908,253.513 
	372.96,253.513 "/>
<path fill-rule="evenodd" clip-rule="evenodd" fill="#344E80" d="M374.953,260.692h3.606l1.261-6.678h1.11
	c1.438,0,2.144,0.628,2.295,2.687c0.176,2.083,0.353,3.539,0.504,3.991h3.732c-0.302-0.703-0.454-2.912-0.655-4.795
	c-0.177-1.531-0.605-2.661-1.614-3.088v-0.1c2.169-0.703,3.858-2.26,3.858-4.77c0-1.582-0.782-2.662-1.891-3.314
	c-1.186-0.728-2.85-0.979-4.464-0.979c-1.689,0-3.404,0.176-4.539,0.451L374.953,260.692L374.953,260.692z M381.257,246.635
	c0.303-0.075,0.731-0.126,1.412-0.126c1.438,0,2.598,0.603,2.598,1.958c0,1.657-1.438,2.837-3.404,2.837h-1.514L381.257,246.635z"/>
<path fill-rule="evenodd" clip-rule="evenodd" fill="#344E80" d="M397.347,260.692l8.776-16.92h-4.06l-3.808,8.033
	c-0.833,1.758-1.639,3.564-2.27,5.222h-0.051c-0.101-1.757-0.227-3.414-0.403-5.196l-0.757-8.059h-3.757l2.118,16.92H397.347z"/>
<polygon fill-rule="evenodd" clip-rule="evenodd" fill="#344E80" points="408.039,243.772 404.811,260.692 408.443,260.692 
	411.67,243.772 "/>
<path fill-rule="evenodd" clip-rule="evenodd" fill="#344E80" d="M424.254,257.304c-0.856,0.352-2.042,0.552-3.227,0.552
	c-3.001,0-4.515-1.808-4.515-4.493c0-2.359,0.908-4.293,2.346-5.447c1.034-0.854,2.421-1.306,3.883-1.306
	c1.463,0,2.572,0.302,3.077,0.552l0.983-2.937c-0.479-0.302-1.866-0.729-3.707-0.729c-2.396,0-4.489,0.578-6.254,1.808
	c-2.572,1.707-4.288,4.67-4.288,8.46c0,4.469,3.027,7.18,7.515,7.18c2.043,0,3.582-0.326,4.489-0.728L424.254,257.304z"/>
<polygon fill-rule="evenodd" clip-rule="evenodd" fill="#344E80" points="429.651,243.772 426.423,260.692 430.055,260.692 
	433.282,243.772 "/>
<path fill-rule="evenodd" clip-rule="evenodd" fill="#344E80" d="M443.471,243.496c-2.446,0-4.615,0.904-6.203,2.41
	c-1.992,1.908-3.128,4.945-3.128,8.009c0,3.94,2.472,7.054,6.885,7.054c2.547,0,4.691-0.904,6.279-2.436
	c1.942-1.907,3.026-4.895,3.026-7.982C450.33,246.509,447.96,243.496,443.471,243.496L443.471,243.496z M443.042,246.509
	c2.674,0,3.43,2.033,3.43,4.143c0,1.958-0.731,4.744-2.068,6.075c-0.781,0.753-1.79,1.229-2.849,1.229
	c-2.472,0-3.557-1.782-3.557-4.167c0-2.033,0.757-4.669,2.119-6C440.898,246.985,441.907,246.509,443.042,246.509z"/>
<path fill-rule="evenodd" clip-rule="evenodd" fill="#344E80" d="M459.207,260.692l1.109-5.924c0.505-2.662,0.908-5.071,1.11-6.703
	l0.075-0.025c0.454,2.084,0.908,3.615,1.665,5.899l2.37,6.753h3.758l3.202-16.92h-3.379l-1.16,6.15
	c-0.479,2.485-0.706,4.343-0.781,6.075h-0.076c-0.403-1.857-0.857-3.615-1.538-5.774l-2.244-6.451h-4.263l-3.228,16.92H459.207z"/>
<path fill-rule="evenodd" clip-rule="evenodd" fill="#344E80" d="M482.206,256.299l0.354,4.394h3.808l-1.992-16.92h-4.665
	l-8.271,16.92h3.858l2.018-4.394H482.206L482.206,256.299z M478.373,253.538l1.69-3.641c0.453-0.979,0.933-2.284,1.361-3.313h0.051
	c0.075,1.029,0.176,2.385,0.252,3.313l0.328,3.641H478.373z"/>
<path fill-rule="evenodd" clip-rule="evenodd" fill="#344E80" d="M499.936,257.304c-0.857,0.352-2.043,0.552-3.228,0.552
	c-3.002,0-4.515-1.808-4.515-4.493c0-2.359,0.908-4.293,2.345-5.447c1.034-0.854,2.422-1.306,3.884-1.306
	c1.463,0,2.572,0.302,3.077,0.552l0.983-2.937c-0.479-0.302-1.866-0.729-3.707-0.729c-2.396,0-4.489,0.578-6.254,1.808
	c-2.572,1.707-4.288,4.67-4.288,8.46c0,4.469,3.027,7.18,7.516,7.18c2.043,0,3.581-0.326,4.489-0.728L499.936,257.304z"/>
<polygon fill-rule="evenodd" clip-rule="evenodd" fill="#344E80" points="505.332,243.772 502.104,260.692 505.735,260.692 
	508.964,243.772 "/>
<path fill-rule="evenodd" clip-rule="evenodd" fill="#344E80" d="M519.151,243.496c-2.446,0-4.614,0.904-6.203,2.41
	c-1.992,1.908-3.128,4.945-3.128,8.009c0,3.94,2.472,7.054,6.885,7.054c2.547,0,4.691-0.904,6.279-2.436
	c1.942-1.907,3.026-4.895,3.026-7.982C526.011,246.509,523.641,243.496,519.151,243.496L519.151,243.496z M518.723,246.509
	c2.674,0,3.43,2.033,3.43,4.143c0,1.958-0.731,4.744-2.067,6.075c-0.782,0.753-1.791,1.229-2.85,1.229
	c-2.472,0-3.556-1.782-3.556-4.167c0-2.033,0.756-4.669,2.118-6C516.579,246.985,517.588,246.509,518.723,246.509z"/>
<path fill-rule="evenodd" clip-rule="evenodd" fill="#344E80" d="M530.248,260.692l1.109-5.924c0.505-2.662,0.907-5.071,1.109-6.703
	l0.076-0.025c0.454,2.084,0.907,3.615,1.664,5.899l2.371,6.753h3.757l3.203-16.92h-3.38l-1.159,6.15
	c-0.479,2.485-0.707,4.343-0.782,6.075h-0.075c-0.404-1.857-0.857-3.615-1.539-5.774l-2.244-6.451h-4.262l-3.228,16.92H530.248z"/>
<path fill-rule="evenodd" clip-rule="evenodd" fill="#344E80" d="M553.247,256.299l0.353,4.394h3.809l-1.992-16.92h-4.665
	l-8.272,16.92h3.859l2.017-4.394H553.247L553.247,256.299z M549.414,253.538l1.689-3.641c0.454-0.979,0.934-2.284,1.362-3.313h0.05
	c0.076,1.029,0.177,2.385,0.252,3.313l0.328,3.641H549.414z"/>
<polygon fill-rule="evenodd" clip-rule="evenodd" fill="#344E80" points="559.249,260.692 569.412,260.692 570.018,257.529 
	563.486,257.529 566.108,243.772 562.477,243.772 "/>
<path fill-rule="evenodd" clip-rule="evenodd" fill="#344E80" d="M576.222,260.492c0.832,0.15,2.597,0.301,4.64,0.301
	c3.683,0,6.179-0.678,8.146-2.234c2.119-1.682,3.506-4.519,3.506-7.782c-0.025-2.485-0.883-4.167-2.244-5.297
	c-1.438-1.23-3.556-1.832-6.204-1.832c-1.639,0-3.253,0.125-4.69,0.376L576.222,260.492L576.222,260.492z M582.526,246.659
	c0.378-0.075,0.907-0.1,1.538-0.1c3.001,0,4.488,1.581,4.488,4.242c0,2.033-0.604,3.79-1.765,5.096
	c-1.109,1.28-2.85,1.983-4.817,1.983c-0.63,0-1.159-0.025-1.588-0.101L582.526,246.659z"/>
<polygon fill-rule="evenodd" clip-rule="evenodd" fill="#344E80" points="604.971,250.476 598.918,250.476 599.624,246.86 
	606.029,246.86 606.635,243.772 596.572,243.772 593.345,260.692 603.76,260.692 604.34,257.604 597.556,257.604 598.338,253.513 
	604.391,253.513 "/>
<path fill-rule="evenodd" clip-rule="evenodd" fill="#344E80" d="M628.752,260.692l2.295-16.92h-4.918l-3.152,6.427
	c-0.731,1.531-1.639,3.515-2.295,5.397h-0.101c-0.025-1.883-0.202-3.816-0.303-5.397l-0.53-6.427h-4.866l-4.263,16.92h3.329
	l1.689-6.979c0.429-1.833,0.934-4.368,1.412-6.603h0.051c0.101,2.26,0.228,4.594,0.379,6.452l0.604,6.853h2.824l3.48-6.929
	c0.934-1.857,1.992-4.191,2.926-6.376h0.075c-0.479,2.436-0.857,4.77-1.135,6.603l-1.034,6.979H628.752z"/>
<polygon fill-rule="evenodd" clip-rule="evenodd" fill="#344E80" points="643.354,250.476 637.301,250.476 638.007,246.86 
	644.412,246.86 645.018,243.772 634.955,243.772 631.728,260.692 642.143,260.692 642.723,257.604 635.938,257.604 636.721,253.513 
	642.773,253.513 "/>
<polygon fill-rule="evenodd" clip-rule="evenodd" fill="#344E80" points="647.867,260.692 651.499,260.692 654.097,246.936 
	658.636,246.936 659.241,243.772 646.606,243.772 645.977,246.936 650.465,246.936 "/>
<polygon fill-rule="evenodd" clip-rule="evenodd" fill="#344E80" points="669.682,250.476 663.629,250.476 664.335,246.86 
	670.74,246.86 671.346,243.772 661.283,243.772 658.056,260.692 668.471,260.692 669.051,257.604 662.268,257.604 663.049,253.513 
	669.102,253.513 "/>
<path fill-rule="evenodd" clip-rule="evenodd" fill="#344E80" d="M681.156,243.496c-2.446,0-4.615,0.904-6.204,2.41
	c-1.992,1.908-3.127,4.945-3.127,8.009c0,3.94,2.472,7.054,6.885,7.054c2.547,0,4.69-0.904,6.279-2.436
	c1.941-1.907,3.026-4.895,3.026-7.982C688.016,246.509,685.646,243.496,681.156,243.496L681.156,243.496z M680.728,246.509
	c2.673,0,3.43,2.033,3.43,4.143c0,1.958-0.731,4.744-2.067,6.075c-0.782,0.753-1.791,1.229-2.85,1.229
	c-2.472,0-3.557-1.782-3.557-4.167c0-2.033,0.757-4.669,2.119-6C678.584,246.985,679.593,246.509,680.728,246.509z"/>
<path fill-rule="evenodd" clip-rule="evenodd" fill="#344E80" d="M688.873,260.692h3.606l1.261-6.678h1.109
	c1.438,0,2.144,0.628,2.295,2.687c0.177,2.083,0.354,3.539,0.505,3.991h3.732c-0.303-0.703-0.454-2.912-0.656-4.795
	c-0.177-1.531-0.604-2.661-1.614-3.088v-0.1c2.169-0.703,3.859-2.26,3.859-4.77c0-1.582-0.782-2.662-1.892-3.314
	c-1.186-0.728-2.85-0.979-4.464-0.979c-1.689,0-3.404,0.176-4.539,0.451L688.873,260.692L688.873,260.692z M695.178,246.635
	c0.303-0.075,0.731-0.126,1.412-0.126c1.438,0,2.598,0.603,2.598,1.958c0,1.657-1.438,2.837-3.404,2.837h-1.514L695.178,246.635z"/>
<path fill-rule="evenodd" clip-rule="evenodd" fill="#344E80" d="M713.638,243.496c-2.446,0-4.615,0.904-6.204,2.41
	c-1.992,1.908-3.127,4.945-3.127,8.009c0,3.94,2.472,7.054,6.885,7.054c2.547,0,4.69-0.904,6.279-2.436
	c1.942-1.907,3.026-4.895,3.026-7.982C720.497,246.509,718.127,243.496,713.638,243.496L713.638,243.496z M713.209,246.509
	c2.673,0,3.43,2.033,3.43,4.143c0,1.958-0.731,4.744-2.068,6.075c-0.781,0.753-1.79,1.229-2.85,1.229
	c-2.471,0-3.556-1.782-3.556-4.167c0-2.033,0.757-4.669,2.118-6C711.065,246.985,712.074,246.509,713.209,246.509z"/>
<polygon fill-rule="evenodd" clip-rule="evenodd" fill="#344E80" points="721.354,260.692 731.518,260.692 732.123,257.529 
	725.592,257.529 728.214,243.772 724.582,243.772 "/>
<path fill-rule="evenodd" clip-rule="evenodd" fill="#344E80" d="M742.639,243.496c-2.445,0-4.614,0.904-6.204,2.41
	c-1.992,1.908-3.126,4.945-3.126,8.009c0,3.94,2.471,7.054,6.885,7.054c2.547,0,4.69-0.904,6.279-2.436
	c1.941-1.907,3.025-4.895,3.025-7.982C749.498,246.509,747.128,243.496,742.639,243.496L742.639,243.496z M742.21,246.509
	c2.674,0,3.43,2.033,3.43,4.143c0,1.958-0.731,4.744-2.067,6.075c-0.782,0.753-1.791,1.229-2.85,1.229
	c-2.472,0-3.556-1.782-3.556-4.167c0-2.033,0.756-4.669,2.118-6C740.066,246.985,741.075,246.509,742.21,246.509z"/>
<path fill-rule="evenodd" clip-rule="evenodd" fill="#344E80" d="M766.092,251.053h-6.178l-0.555,2.887h2.622l-0.681,3.564
	c-0.403,0.176-1.009,0.302-1.841,0.302c-2.674,0-4.362-1.431-4.362-4.268c0-2.31,0.982-4.318,2.445-5.473
	c1.135-0.879,2.648-1.355,4.338-1.355c1.513,0,2.824,0.352,3.606,0.703l1.084-3.063c-0.655-0.326-2.295-0.753-4.515-0.753
	c-2.95,0-5.572,0.879-7.489,2.461c-2.169,1.832-3.48,4.568-3.48,7.731c0,2.159,0.782,4.017,2.144,5.222
	c1.412,1.255,3.329,1.857,5.675,1.857c2.144,0,4.186-0.527,5.497-0.954L766.092,251.053z"/>
<path fill-rule="evenodd" clip-rule="evenodd" fill="#344E80" d="M773.002,239.706l-2.37,3.163h3.076l3.329-3.163H773.002
	L773.002,239.706z M770.48,243.772l-3.229,16.92h3.632l3.228-16.92H770.48z"/>
<path fill-rule="evenodd" clip-rule="evenodd" fill="#344E80" d="M783.82,256.299l0.354,4.394h3.808l-1.992-16.92h-4.665
	l-8.271,16.92h3.858l2.018-4.394H783.82L783.82,256.299z M779.987,253.538l1.69-3.641c0.453-0.979,0.933-2.284,1.361-3.313h0.051
	c0.075,1.029,0.177,2.385,0.252,3.313l0.328,3.641H779.987z"/>
<polygon fill-rule="evenodd" clip-rule="evenodd" fill="#344E80" points="360.678,277.64 354.626,277.64 355.332,274.024 
	361.737,274.024 362.343,270.938 352.28,270.938 349.053,287.856 359.468,287.856 360.048,284.77 353.264,284.77 354.046,280.678 
	360.099,280.678 "/>
<polygon fill-rule="evenodd" clip-rule="evenodd" fill="#344E80" points="369.958,270.938 366.731,287.856 370.362,287.856 
	371.725,280.753 377.877,280.753 376.541,287.856 380.172,287.856 383.4,270.938 379.769,270.938 378.508,277.539 372.329,277.539 
	373.59,270.938 "/>
<polygon fill-rule="evenodd" clip-rule="evenodd" fill="#344E80" points="386.679,270.938 383.451,287.856 387.083,287.856 
	390.311,270.938 "/>
<path fill-rule="evenodd" clip-rule="evenodd" fill="#344E80" d="M390.487,287.656c0.832,0.15,2.597,0.301,4.64,0.301
	c3.682,0,6.178-0.678,8.146-2.234c2.119-1.682,3.505-4.519,3.505-7.781c-0.025-2.485-0.883-4.168-2.245-5.297
	c-1.437-1.23-3.556-1.833-6.204-1.833c-1.639,0-3.253,0.126-4.69,0.376L390.487,287.656L390.487,287.656z M396.792,273.824
	c0.378-0.075,0.908-0.101,1.538-0.101c3.001,0,4.489,1.581,4.489,4.242c0,2.033-0.605,3.791-1.766,5.097
	c-1.109,1.28-2.849,1.982-4.816,1.982c-0.63,0-1.16-0.024-1.589-0.1L396.792,273.824z"/>
<path fill-rule="evenodd" clip-rule="evenodd" fill="#344E80" d="M407.61,287.856h3.606l1.261-6.677h1.11
	c1.438,0,2.144,0.627,2.295,2.686c0.176,2.084,0.353,3.54,0.504,3.991h3.732c-0.302-0.702-0.454-2.911-0.656-4.794
	c-0.176-1.531-0.605-2.661-1.614-3.088v-0.101c2.169-0.703,3.858-2.26,3.858-4.77c0-1.582-0.782-2.661-1.891-3.313
	c-1.186-0.729-2.85-0.979-4.464-0.979c-1.689,0-3.404,0.176-4.54,0.452L407.61,287.856L407.61,287.856z M413.915,273.799
	c0.303-0.075,0.731-0.125,1.413-0.125c1.437,0,2.598,0.602,2.598,1.957c0,1.657-1.438,2.838-3.405,2.838h-1.513L413.915,273.799z"/>
<path fill-rule="evenodd" clip-rule="evenodd" fill="#344E80" d="M432.374,270.661c-2.445,0-4.614,0.903-6.203,2.409
	c-1.992,1.908-3.127,4.945-3.127,8.009c0,3.941,2.472,7.054,6.885,7.054c2.547,0,4.69-0.903,6.279-2.435
	c1.941-1.908,3.025-4.896,3.025-7.983C439.233,273.674,436.863,270.661,432.374,270.661L432.374,270.661z M431.946,273.674
	c2.673,0,3.429,2.033,3.429,4.142c0,1.958-0.73,4.745-2.067,6.075c-0.782,0.753-1.791,1.229-2.85,1.229
	c-2.472,0-3.556-1.782-3.556-4.167c0-2.033,0.756-4.669,2.118-6C429.803,274.15,430.811,273.674,431.946,273.674z"/>
<polygon fill-rule="evenodd" clip-rule="evenodd" fill="#344E80" points="440.092,287.856 450.255,287.856 450.859,284.693 
	444.328,284.693 446.951,270.938 443.319,270.938 "/>
<path fill-rule="evenodd" clip-rule="evenodd" fill="#344E80" d="M461.376,270.661c-2.446,0-4.615,0.903-6.204,2.409
	c-1.992,1.908-3.127,4.945-3.127,8.009c0,3.941,2.472,7.054,6.885,7.054c2.547,0,4.69-0.903,6.279-2.435
	c1.941-1.908,3.026-4.896,3.026-7.983C468.235,273.674,465.865,270.661,461.376,270.661L461.376,270.661z M460.947,273.674
	c2.673,0,3.43,2.033,3.43,4.142c0,1.958-0.731,4.745-2.068,6.075c-0.781,0.753-1.79,1.229-2.849,1.229
	c-2.472,0-3.557-1.782-3.557-4.167c0-2.033,0.757-4.669,2.118-6C458.804,274.15,459.813,273.674,460.947,273.674z"/>
<path fill-rule="evenodd" clip-rule="evenodd" fill="#344E80" d="M484.829,278.217h-6.179l-0.555,2.887h2.623l-0.682,3.565
	c-0.403,0.176-1.009,0.301-1.84,0.301c-2.674,0-4.363-1.431-4.363-4.268c0-2.31,0.983-4.317,2.446-5.473
	c1.135-0.878,2.647-1.355,4.338-1.355c1.513,0,2.824,0.352,3.605,0.703l1.085-3.063c-0.656-0.327-2.295-0.753-4.515-0.753
	c-2.95,0-5.573,0.878-7.489,2.46c-2.169,1.832-3.48,4.568-3.48,7.731c0,2.159,0.781,4.017,2.144,5.222
	c1.412,1.255,3.329,1.857,5.674,1.857c2.144,0,4.187-0.526,5.498-0.953L484.829,278.217z"/>
<path fill-rule="evenodd" clip-rule="evenodd" fill="#344E80" d="M491.739,266.87l-2.37,3.163h3.076l3.329-3.163H491.739
	L491.739,266.87z M489.217,270.938l-3.228,16.919h3.632l3.228-16.919H489.217z"/>
<path fill-rule="evenodd" clip-rule="evenodd" fill="#344E80" d="M502.558,283.464l0.353,4.393h3.809l-1.992-16.919h-4.666
	l-8.271,16.919h3.858l2.018-4.393H502.558L502.558,283.464z M498.725,280.702l1.689-3.64c0.454-0.979,0.934-2.285,1.361-3.313h0.051
	c0.076,1.028,0.177,2.385,0.253,3.313l0.327,3.64H498.725z"/>
<path fill-rule="evenodd" clip-rule="evenodd" fill="#344E80" d="M513.251,287.656c0.832,0.15,2.597,0.301,4.64,0.301
	c3.682,0,6.179-0.678,8.146-2.234c2.118-1.682,3.506-4.519,3.506-7.781c-0.025-2.485-0.883-4.168-2.245-5.297
	c-1.438-1.23-3.556-1.833-6.203-1.833c-1.64,0-3.254,0.126-4.691,0.376L513.251,287.656L513.251,287.656z M519.555,273.824
	c0.379-0.075,0.908-0.101,1.539-0.101c3.001,0,4.488,1.581,4.488,4.242c0,2.033-0.605,3.791-1.766,5.097
	c-1.109,1.28-2.85,1.982-4.816,1.982c-0.63,0-1.16-0.024-1.589-0.1L519.555,273.824z"/>
<polygon fill-rule="evenodd" clip-rule="evenodd" fill="#344E80" points="542,277.64 535.947,277.64 536.653,274.024 
	543.059,274.024 543.664,270.938 533.602,270.938 530.374,287.856 540.789,287.856 541.369,284.77 534.585,284.77 535.367,280.678 
	541.42,280.678 "/>
<polygon fill-rule="evenodd" clip-rule="evenodd" fill="#344E80" points="543.412,287.856 553.575,287.856 554.181,284.693 
	547.648,284.693 550.271,270.938 546.64,270.938 "/>
<path fill-rule="evenodd" clip-rule="evenodd" fill="#344E80" d="M560.334,287.856h3.556l1.159-6.1
	c0.379,0.05,0.884,0.101,1.488,0.101c2.068,0,4.035-0.478,5.422-1.557c1.337-1.029,2.32-2.636,2.32-4.77
	c0-1.632-0.706-2.812-1.841-3.59c-1.236-0.879-3.001-1.13-4.514-1.13c-1.64,0-3.354,0.176-4.438,0.452L560.334,287.856
	L560.334,287.856z M566.563,273.824c0.303-0.075,0.781-0.126,1.463-0.126c1.412,0,2.598,0.527,2.598,2.159
	c0,1.682-1.438,3.088-3.632,3.088c-0.605,0-1.009-0.051-1.387-0.126L566.563,273.824z"/>
<polygon fill-rule="evenodd" clip-rule="evenodd" fill="#344E80" points="586.183,277.64 580.13,277.64 580.836,274.024 
	587.241,274.024 587.847,270.938 577.785,270.938 574.557,287.856 584.973,287.856 585.552,284.77 578.769,284.77 579.551,280.678 
	585.603,280.678 "/>
<path fill-rule="evenodd" clip-rule="evenodd" fill="#344E80" d="M587.595,287.856h3.606l1.261-6.677h1.109
	c1.438,0,2.145,0.627,2.295,2.686c0.177,2.084,0.354,3.54,0.505,3.991h3.732c-0.303-0.702-0.454-2.911-0.655-4.794
	c-0.177-1.531-0.605-2.661-1.614-3.088v-0.101c2.169-0.703,3.858-2.26,3.858-4.77c0-1.582-0.782-2.661-1.892-3.313
	c-1.186-0.729-2.85-0.979-4.463-0.979c-1.69,0-3.405,0.176-4.54,0.452L587.595,287.856L587.595,287.856z M593.899,273.799
	c0.303-0.075,0.731-0.125,1.412-0.125c1.438,0,2.598,0.602,2.598,1.957c0,1.657-1.438,2.838-3.404,2.838h-1.513L593.899,273.799z"/>
<path fill-rule="evenodd" clip-rule="evenodd" fill="#344E80" d="M612.511,266.87l-2.37,3.163h3.076l3.354-3.163H612.511
	L612.511,266.87z M605.248,270.938l-1.791,9.438c-0.15,0.804-0.252,1.632-0.252,2.359c0,3.615,2.144,5.397,5.649,5.397
	c4.614,0,6.885-2.46,7.868-7.581l1.841-9.614h-3.631l-1.867,9.765c-0.604,3.138-1.865,4.394-3.757,4.394
	c-1.64,0-2.472-1.055-2.472-2.41c0-0.753,0.05-1.431,0.177-2.008l1.865-9.74H605.248z"/>
</svg>
